<?xml version="1.0" encoding="UTF-8"?>
<svg width="48px" height="48px" viewBox="0 0 48 48" version="1.1" xmlns="http://www.w3.org/2000/svg">
    <g stroke="none" stroke-width="1" fill="none" fill-rule="evenodd">
        <path d="M38.64,16.87 L36.07,8.44 C35.67,7.18 34.5,6.38 33.19,6.38 L14.81,6.38 C13.5,6.38 12.33,7.18 11.93,8.44 L9.36,16.87 C8.05,17.2 7.13,18.41 7.13,19.83 L7.13,30.79 C7.13,31.63 7.5,32.38 8.13,32.91 L8.13,37.6 C8.13,39.04 9.28,40.22 10.69,40.22 L12.44,40.22 C13.85,40.22 15,39.04 15,37.6 L15,34.98 L33,34.98 L33,37.6 C33,39.04 34.15,40.22 35.56,40.22 L37.31,40.22 C38.72,40.22 39.87,39.04 39.87,37.6 L39.87,32.91 C40.5,32.38 40.87,31.63 40.87,30.79 L40.87,19.83 C40.87,18.41 39.95,17.2 38.64,16.87 Z M14.81,9 L33.19,9 L35.25,16.62 L12.75,16.62 L14.81,9 Z M13.69,28.17 C12.28,28.17 11.13,26.99 11.13,25.54 C11.13,24.1 12.28,22.92 13.69,22.92 C15.1,22.92 16.25,24.1 16.25,25.54 C16.25,26.99 15.1,28.17 13.69,28.17 Z M34.31,28.17 C32.9,28.17 31.75,26.99 31.75,25.54 C31.75,24.1 32.9,22.92 34.31,22.92 C35.72,22.92 36.87,24.1 36.87,25.54 C36.87,26.99 35.72,28.17 34.31,28.17 Z" fill="#FFFFFF" fill-rule="nonzero"></path>
    </g>
</svg>