<?xml version="1.0" encoding="UTF-8"?>
<svg width="48px" height="48px" viewBox="0 0 48 48" version="1.1" xmlns="http://www.w3.org/2000/svg">
    <g stroke="none" stroke-width="1" fill="none" fill-rule="evenodd">
        <path d="M33.4,19.9 L28.1,19.9 L28.1,14.6 C28.1,13.75 27.35,13 26.5,13 L21.5,13 C20.65,13 19.9,13.75 19.9,14.6 L19.9,19.9 L14.6,19.9 C13.75,19.9 13,20.65 13,21.5 L13,26.5 C13,27.35 13.75,28.1 14.6,28.1 L19.9,28.1 L19.9,33.4 C19.9,34.25 20.65,35 21.5,35 L26.5,35 C27.35,35 28.1,34.25 28.1,33.4 L28.1,28.1 L33.4,28.1 C34.25,28.1 35,27.35 35,26.5 L35,21.5 C35,20.65 34.25,19.9 33.4,19.9 Z M39,13.5 C42.59,13.5 45.5,10.59 45.5,7 C45.5,3.41 42.59,0.5 39,0.5 C35.41,0.5 32.5,3.41 32.5,7 C32.5,10.59 35.41,13.5 39,13.5 Z M39,4.25 C40.52,4.25 41.75,5.48 41.75,7 C41.75,8.52 40.52,9.75 39,9.75 C37.48,9.75 36.25,8.52 36.25,7 C36.25,5.48 37.48,4.25 39,4.25 Z M25.38,45.5 C32.93,45.5 39.25,42.59 39.25,39 L39.25,29 C36.93,29 34.76,28.55 32.87,27.77 L32.87,39 C32.87,40.05 29.57,42.5 25.38,42.5 C21.18,42.5 17.88,40.05 17.88,39 L17.88,27.77 C15.99,28.55 13.82,29 11.5,29 L11.5,39 C11.5,42.59 17.82,45.5 25.38,45.5 Z M9,13.5 C12.59,13.5 15.5,10.59 15.5,7 C15.5,3.41 12.59,0.5 9,0.5 C5.41,0.5 2.5,3.41 2.5,7 C2.5,10.59 5.41,13.5 9,13.5 Z M9,4.25 C10.52,4.25 11.75,5.48 11.75,7 C11.75,8.52 10.52,9.75 9,9.75 C7.48,9.75 6.25,8.52 6.25,7 C6.25,5.48 7.48,4.25 9,4.25 Z" fill="#FFFFFF" fill-rule="nonzero"></path>
    </g>
</svg>