<?xml version="1.0" encoding="UTF-8"?>
<svg width="48px" height="48px" viewBox="0 0 48 48" version="1.1" xmlns="http://www.w3.org/2000/svg">
    <g stroke="none" stroke-width="1" fill="none" fill-rule="evenodd">
        <path d="M18.1,24.58 C15.68,24.58 13.73,22.63 13.73,20.22 C13.73,17.8 15.68,15.85 18.1,15.85 C20.52,15.85 22.47,17.8 22.47,20.22 C22.47,22.63 20.52,24.58 18.1,24.58 Z M34.48,18.34 C37.53,18.34 40,15.87 40,12.82 C40,9.77 37.53,7.3 34.48,7.3 C31.43,7.3 28.96,9.77 28.96,12.82 C28.96,15.87 31.43,18.34 34.48,18.34 Z M12.27,18.34 C15.32,18.34 17.79,15.87 17.79,12.82 C17.79,9.77 15.32,7.3 12.27,7.3 C9.22,7.3 6.75,9.77 6.75,12.82 C6.75,15.87 9.22,18.34 12.27,18.34 Z M39.2,23.96 C39.58,22.82 38.93,21.62 37.79,21.24 C36.65,20.86 35.44,21.52 35.06,22.65 C33.96,25.62 31.28,27.82 28.3,28.81 C29.42,31.56 30.36,35.07 30.36,37.44 C30.36,38.67 30.36,41.12 28.16,41.12 C26.03,41.12 24.89,38.85 23.13,35.39 C21.22,31.56 18.98,27.3 13.42,27.3 C11.9,27.3 10.67,28.53 10.67,30.05 C10.67,31.57 11.9,32.8 13.42,32.8 C16.05,32.8 17.62,35.7 19.27,38.74 C20.85,41.64 22.78,45.44 28.16,45.44 C33.6,45.44 34.67,41.22 34.67,37.44 C34.67,34.88 33.88,31.41 32.84,28.66 C36.15,27.19 38.09,25.82 39.2,23.96 Z M24.65,24.58 C22.24,24.58 20.28,22.63 20.28,20.22 C20.28,17.8 22.24,15.85 24.65,15.85 C27.07,15.85 29.02,17.8 29.02,20.22 C29.02,22.63 27.07,24.58 24.65,24.58 Z" fill="#FFFFFF" fill-rule="nonzero"></path>
    </g>
</svg>