<?xml version="1.0" encoding="UTF-8"?>
<svg width="48px" height="48px" viewBox="0 0 48 48" version="1.1" xmlns="http://www.w3.org/2000/svg">
    <g stroke="none" stroke-width="1" fill="none" fill-rule="evenodd">
        <path d="M41.9,23.9 L34.6,17.5 L34.6,11.1 C34.6,10.2 33.9,9.5 33,9.5 L31.4,9.5 C30.5,9.5 29.8,10.2 29.8,11.1 L29.8,13.2 L24.4,8.5 C23.6,7.8 22.4,7.8 21.6,8.5 L6.1,23.9 C5.6,24.4 5.6,25.2 6.1,25.7 L8.1,27.7 C8.6,28.2 9.4,28.2 9.9,27.7 L24,13.6 L38.1,27.7 C38.6,28.2 39.4,28.2 39.9,27.7 L41.9,25.7 C42.4,25.2 42.4,24.4 41.9,23.9 L41.9,23.9 Z M24,27.5 C22.5,27.5 21.2,28.7 21.2,30.3 L21.2,40 L26.9,40 L26.9,30.3 C26.9,28.7 25.5,27.5 24,27.5 L24,27.5 Z" fill="#FFFFFF" fill-rule="nonzero"></path>
    </g>
</svg>