<?xml version="1.0" encoding="UTF-8"?>
<svg width="200" height="200" viewBox="0 0 200 200" xmlns="http://www.w3.org/2000/svg">
  <defs>
    <linearGradient id="bgGradient" x1="0%" y1="0%" x2="0%" y2="100%">
      <stop offset="0%" stop-color="#f8f9fa" />
      <stop offset="100%" stop-color="#e9ecef" />
    </linearGradient>
    <linearGradient id="heartGradient" x1="0%" y1="0%" x2="100%" y2="100%">
      <stop offset="0%" stop-color="#fa5252" />
      <stop offset="100%" stop-color="#c92a2a" />
    </linearGradient>
    <linearGradient id="doctorGradient" x1="0%" y1="0%" x2="100%" y2="100%">
      <stop offset="0%" stop-color="#74c0fc" />
      <stop offset="100%" stop-color="#1c7ed6" />
    </linearGradient>
    <linearGradient id="plusGradient" x1="0%" y1="0%" x2="100%" y2="100%">
      <stop offset="0%" stop-color="#fa5252" />
      <stop offset="100%" stop-color="#e03131" />
    </linearGradient>
  </defs>
  
  <!-- Background -->
  <rect x="0" y="0" width="200" height="200" rx="8" fill="url(#bgGradient)"/>
  
  <!-- Main Hospital Building -->
  <rect x="50" y="90" width="100" height="80" rx="2" fill="white" stroke="#ced4da" stroke-width="2"/>
  
  <!-- Hospital Roof -->
  <polygon points="40,90 100,60 160,90" fill="#4dabf7" stroke="#339af0" stroke-width="2"/>
  
  <!-- Hospital Door -->
  <rect x="90" y="140" width="20" height="30" rx="2" fill="#4dabf7"/>
  
  <!-- Hospital Windows -->
  <rect x="65" y="110" width="15" height="15" rx="2" fill="#74c0fc" stroke="#4dabf7" stroke-width="1"/>
  <rect x="95" y="110" width="15" height="15" rx="2" fill="#74c0fc" stroke="#4dabf7" stroke-width="1"/>
  <rect x="125" y="110" width="15" height="15" rx="2" fill="#74c0fc" stroke="#4dabf7" stroke-width="1"/>
  
  <!-- Medical Cross -->
  <rect x="90" y="75" width="20" height="5" rx="1" fill="url(#plusGradient)"/>
  <rect x="97.5" y="67.5" width="5" height="20" rx="1" fill="url(#plusGradient)"/>
  
  <!-- Heart Monitor Line -->
  <path d="M30,40 L60,40 L70,25 L80,55 L90,35 L100,45 L170,45" stroke="url(#heartGradient)" stroke-width="3" fill="none" stroke-linecap="round"/>
  
  <!-- Doctors -->
  <g transform="translate(40, 155)">
    <!-- Body -->
    <rect x="-7.5" y="0" width="15" height="25" rx="2" fill="url(#doctorGradient)"/>
    
    <!-- Head -->
    <circle cx="0" cy="-10" r="10" fill="#ffe3e3"/>
    
    <!-- Medical Symbol -->
    <rect x="-5" y="10" width="10" height="2" rx="1" fill="white"/>
    <rect x="-1" y="6" width="2" height="10" rx="1" fill="white"/>
  </g>
  
  <g transform="translate(160, 155)">
    <!-- Body -->
    <rect x="-7.5" y="0" width="15" height="25" rx="2" fill="url(#doctorGradient)"/>
    
    <!-- Head -->
    <circle cx="0" cy="-10" r="10" fill="#ffe3e3"/>
    
    <!-- Medical Symbol -->
    <rect x="-5" y="10" width="10" height="2" rx="1" fill="white"/>
    <rect x="-1" y="6" width="2" height="10" rx="1" fill="white"/>
  </g>
  
  <!-- Ambulance -->
  <g transform="translate(25, 165)">
    <!-- Body -->
    <rect x="0" y="0" width="30" height="15" rx="2" fill="white" stroke="#ced4da" stroke-width="1"/>
    
    <!-- Red Stripe -->
    <rect x="0" y="5" width="30" height="3" fill="#fa5252"/>
    
    <!-- Windows -->
    <rect x="20" y="2" width="7" height="3" rx="1" fill="#74c0fc"/>
    
    <!-- Wheels -->
    <circle cx="7" cy="17" r="3" fill="#343a40"/>
    <circle cx="23" cy="17" r="3" fill="#343a40"/>
    
    <!-- Red Cross -->
    <rect x="10" y="10" width="10" height="2" rx="1" fill="#fa5252"/>
    <rect x="14" y="6" width="2" height="10" rx="1" fill="#fa5252"/>
  </g>
  
  <!-- Heart Symbol -->
  <path d="M160,30 C160,20 150,15 140,20 C130,15 120,20 120,30 C120,50 140,55 140,55 C140,55 160,50 160,30 Z" fill="url(#heartGradient)" fill-opacity="0.6"/>
</svg>